<svg id="visual" viewBox="0 0 900 600" width="900" height="600" xmlns="http://www.w3.org/2000/svg" xmlns:xlink="http://www.w3.org/1999/xlink" version="1.1"><rect x="0" y="0" width="900" height="600" fill="#3B3B3B"></rect><path d="M0 188L21.5 193.8C43 199.7 86 211.3 128.8 213.7C171.7 216 214.3 209 257.2 213.3C300 217.7 343 233.3 385.8 236.5C428.7 239.7 471.3 230.3 514.2 220.7C557 211 600 201 642.8 195.2C685.7 189.3 728.3 187.7 771.2 189.7C814 191.7 857 197.3 878.5 200.2L900 203L900 0L878.5 0C857 0 814 0 771.2 0C728.3 0 685.7 0 642.8 0C600 0 557 0 514.2 0C471.3 0 428.7 0 385.8 0C343 0 300 0 257.2 0C214.3 0 171.7 0 128.8 0C86 0 43 0 21.5 0L0 0Z" fill="#fa7268"></path><path d="M0 176L21.5 173C43 170 86 164 128.8 154.8C171.7 145.7 214.3 133.3 257.2 138C300 142.7 343 164.3 385.8 175.3C428.7 186.3 471.3 186.7 514.2 185.5C557 184.3 600 181.7 642.8 181.8C685.7 182 728.3 185 771.2 184.2C814 183.3 857 178.7 878.5 176.3L900 174L900 0L878.5 0C857 0 814 0 771.2 0C728.3 0 685.7 0 642.8 0C600 0 557 0 514.2 0C471.3 0 428.7 0 385.8 0C343 0 300 0 257.2 0C214.3 0 171.7 0 128.8 0C86 0 43 0 21.5 0L0 0Z" fill="#ff8855"></path><path d="M0 161L21.5 152.5C43 144 86 127 128.8 118C171.7 109 214.3 108 257.2 112C300 116 343 125 385.8 131.2C428.7 137.3 471.3 140.7 514.2 137.2C557 133.7 600 123.3 642.8 118.5C685.7 113.7 728.3 114.3 771.2 110.8C814 107.3 857 99.7 878.5 95.8L900 92L900 0L878.5 0C857 0 814 0 771.2 0C728.3 0 685.7 0 642.8 0C600 0 557 0 514.2 0C471.3 0 428.7 0 385.8 0C343 0 300 0 257.2 0C214.3 0 171.7 0 128.8 0C86 0 43 0 21.5 0L0 0Z" fill="#ffa243"></path><path d="M0 102L21.5 98.7C43 95.3 86 88.7 128.8 90.3C171.7 92 214.3 102 257.2 106.5C300 111 343 110 385.8 102.3C428.7 94.7 471.3 80.3 514.2 81C557 81.7 600 97.3 642.8 96.8C685.7 96.3 728.3 79.7 771.2 79.3C814 79 857 95 878.5 103L900 111L900 0L878.5 0C857 0 814 0 771.2 0C728.3 0 685.7 0 642.8 0C600 0 557 0 514.2 0C471.3 0 428.7 0 385.8 0C343 0 300 0 257.2 0C214.3 0 171.7 0 128.8 0C86 0 43 0 21.5 0L0 0Z" fill="#ffbe32"></path><path d="M0 50L21.5 49.8C43 49.7 86 49.3 128.8 46.7C171.7 44 214.3 39 257.2 36.7C300 34.3 343 34.7 385.8 37C428.7 39.3 471.3 43.7 514.2 49.5C557 55.3 600 62.7 642.8 61.7C685.7 60.7 728.3 51.3 771.2 50.5C814 49.7 857 57.3 878.5 61.2L900 65L900 0L878.5 0C857 0 814 0 771.2 0C728.3 0 685.7 0 642.8 0C600 0 557 0 514.2 0C471.3 0 428.7 0 385.8 0C343 0 300 0 257.2 0C214.3 0 171.7 0 128.8 0C86 0 43 0 21.5 0L0 0Z" fill="#f9dc26"></path></svg>